<svg width="868" height="228" viewBox="0 0 868 228" fill="black" xmlns="http://www.w3.org/2000/svg">
<path d="M274.525 160H236.586L197.475 84.5605H196.815C197.06 86.8555 197.279 89.6143 197.475 92.8369C197.67 96.0596 197.841 99.3555 197.987 102.725C198.134 106.045 198.207 109.048 198.207 111.733V160H172.572V52.9199H210.365L249.33 127.334H249.77C249.623 124.99 249.477 122.28 249.33 119.204C249.184 116.079 249.037 112.93 248.891 109.756C248.793 106.582 248.744 103.774 248.744 101.333V52.9199H274.525V160Z" fill="#000"/>
<path d="M351.793 81.3784C354.19 83.1812 354.488 85.2816 352.685 87.6794C351.243 89.5977 349.143 89.8953 346.384 88.572C342.626 86.7476 338.446 87.2327 333.842 90.0272C329.379 92.802 325.194 96.7871 321.288 101.982C317.442 107.098 315.985 112.946 316.918 119.527C317.85 126.108 321.153 131.532 326.828 135.799C332.503 140.066 339.682 141.584 348.363 140.354C357.105 139.045 363.729 135.392 368.236 129.398C373.524 122.364 377.553 114.759 380.323 106.582C381.728 102.384 382.163 98.3942 381.627 94.6135C381.091 90.8329 379.145 87.6806 375.788 85.1567C372.431 82.6327 369.263 81.189 366.283 80.8255C363.304 80.4619 361.454 80.0098 360.735 79.4689C358.337 77.6661 358.039 75.5657 359.842 73.1679C360.804 71.889 363.024 71.4316 366.504 71.7957C368.384 71.9579 370.883 72.7109 374.001 74.0546C377.12 75.3982 379.798 76.9114 382.036 78.594C386.112 81.6588 388.808 85.562 390.122 90.3036C391.357 94.985 391.311 99.955 389.985 105.213C387.432 115.43 382.581 125.295 375.43 134.806C369.42 142.799 360.815 147.589 349.613 149.176C338.411 150.763 329.013 148.702 321.42 142.993C313.827 137.284 309.385 129.878 308.096 120.777C306.807 111.675 309.017 103.328 314.726 95.7347C320.495 88.0615 326.601 83.0187 333.043 80.6063C339.546 78.114 345.137 78.0005 349.814 80.2661C350.733 80.7071 351.393 81.0779 351.793 81.3784Z" fill="#000"/>
<path d="M618.768 106.313C618.768 114.565 617.767 122.085 615.765 128.872C613.812 135.61 610.735 141.421 606.536 146.304C602.337 151.187 596.941 154.946 590.35 157.583C583.758 160.171 575.872 161.465 566.692 161.465C557.708 161.465 549.92 160.171 543.328 157.583C536.785 154.946 531.39 151.211 527.142 146.377C522.894 141.494 519.744 135.659 517.693 128.872C515.643 122.085 514.617 114.517 514.617 106.167C514.617 95.0342 516.448 85.3662 520.11 77.1631C523.821 68.9111 529.534 62.5391 537.249 58.0469C544.964 53.5059 554.827 51.2354 566.839 51.2354C579.046 51.2354 588.958 53.5059 596.575 58.0469C604.241 62.5879 609.856 68.9844 613.421 77.2363C616.985 85.4883 618.768 95.1807 618.768 106.313ZM545.086 106.313C545.086 112.759 545.818 118.301 547.283 122.939C548.748 127.578 551.067 131.143 554.241 133.633C557.415 136.123 561.565 137.368 566.692 137.368C572.015 137.368 576.238 136.123 579.363 133.633C582.537 131.143 584.808 127.578 586.175 122.939C587.591 118.301 588.299 112.759 588.299 106.313C588.299 96.6455 586.688 89.0039 583.465 83.3887C580.242 77.7734 574.7 74.9658 566.839 74.9658C561.614 74.9658 557.391 76.2354 554.168 78.7744C550.994 81.3135 548.675 84.9268 547.21 89.6143C545.794 94.3018 545.086 99.8682 545.086 106.313Z" fill="#000"/>
<path d="M502.077 52.9199L466.994 160H432.937L398 52.9199H430.52L445.095 107.192C445.632 109.243 446.242 111.88 446.926 115.103C447.658 118.276 448.317 121.45 448.903 124.624C449.538 127.798 449.929 130.386 450.075 132.388C450.271 130.386 450.637 127.822 451.174 124.697C451.711 121.572 452.297 118.447 452.932 115.322C453.615 112.148 454.25 109.536 454.836 107.485L469.704 52.9199H502.077Z" fill="#000"/>
<path d="M306 224.9C304.6 224.9 303.5 224.417 302.7 223.45C301.9 222.483 301.5 221.3 301.5 219.9C301.5 217.5 302.3 215.033 303.9 212.5C304.333 211.8 304.833 211.117 305.4 210.45C305.967 209.75 306.583 209.083 307.25 208.45C308.25 207.483 309.3 206.683 310.4 206.05C311.5 205.417 312.567 205.1 313.6 205.1C315.3 205.1 316.15 205.9 316.15 207.5C316.15 209.5 314.983 211.317 312.65 212.95C310.483 214.417 308.35 215.15 306.25 215.15C305.883 215.15 305.55 215.133 305.25 215.1C304.983 215.033 304.733 214.967 304.5 214.9C304.167 215.533 303.867 216.35 303.6 217.35C303.333 218.35 303.2 219.217 303.2 219.95C303.2 222.15 304.167 223.25 306.1 223.25C307.667 223.25 309.15 222.983 310.55 222.45C311.95 221.883 313.617 220.833 315.55 219.3C316.75 218.367 317.65 217.617 318.25 217.05C318.85 216.483 319.5 215.883 320.2 215.25C320.4 215.117 320.583 215.05 320.75 215.05C320.917 215.05 321.083 215.1 321.25 215.2C321.417 215.3 321.5 215.45 321.5 215.65C321.5 216.017 321.167 216.533 320.5 217.2C319.933 217.733 319.333 218.3 318.7 218.9C318.067 219.467 317.067 220.267 315.7 221.3C314.233 222.433 312.633 223.317 310.9 223.95C309.167 224.583 307.533 224.9 306 224.9ZM305.95 213.55C307.017 213.55 308.033 213.383 309 213.05C309.967 212.717 310.883 212.233 311.75 211.6C313.683 210.167 314.65 208.817 314.65 207.55C314.65 206.983 314.3 206.7 313.6 206.7C312.267 206.7 310.717 207.517 308.95 209.15C308.083 209.95 307.367 210.683 306.8 211.35C306.267 211.983 305.767 212.683 305.3 213.45C305.5 213.517 305.717 213.55 305.95 213.55ZM319.578 225.65C317.711 225.65 316.778 225.033 316.778 223.8C316.778 223.033 317.045 222.267 317.578 221.5C318.145 220.733 318.811 220.033 319.578 219.4C320.345 218.767 321.061 218.283 321.728 217.95C321.928 217.85 322.195 217.75 322.528 217.65C322.895 217.55 323.195 217.5 323.428 217.5C323.695 217.5 323.828 217.6 323.828 217.8C323.828 217.967 323.645 218.15 323.278 218.35C321.745 219.083 320.545 219.967 319.678 221C318.845 222 318.428 222.817 318.428 223.45C318.428 224.05 318.945 224.35 319.978 224.35C320.845 224.35 321.778 224.133 322.778 223.7C323.811 223.267 324.778 222.7 325.678 222C326.611 221.3 327.378 220.55 327.978 219.75C328.578 218.95 328.878 218.183 328.878 217.45C328.878 216.95 328.711 216.5 328.378 216.1C328.078 215.7 327.578 215.4 326.878 215.2L323.578 214.2C322.745 213.933 322.145 213.583 321.778 213.15C321.411 212.717 321.228 212.233 321.228 211.7C321.228 210.7 321.595 209.8 322.328 209C323.095 208.2 324.045 207.567 325.178 207.1C326.311 206.633 327.411 206.4 328.478 206.4C329.545 206.4 330.478 206.667 331.278 207.2C332.078 207.7 332.478 208.383 332.478 209.25C332.478 209.75 332.328 210.217 332.028 210.65C331.761 211.083 331.445 211.3 331.078 211.3C330.511 211.3 330.228 211.067 330.228 210.6C330.228 210.433 330.311 210.233 330.478 210C330.678 209.733 330.778 209.483 330.778 209.25C330.778 208.25 330.011 207.75 328.478 207.75C327.645 207.75 326.811 207.933 325.978 208.3C325.178 208.633 324.511 209.083 323.978 209.65C323.445 210.217 323.178 210.833 323.178 211.5C323.178 212.167 323.845 212.7 325.178 213.1L328.378 214.1C329.345 214.4 330.011 214.817 330.378 215.35C330.745 215.85 330.928 216.417 330.928 217.05C330.928 218.55 330.011 220.1 328.178 221.7C325.211 224.333 322.345 225.65 319.578 225.65ZM334.107 227.45C333.473 227.45 333.157 226.95 333.157 225.95C333.157 224.483 333.973 221.917 335.607 218.25C337.273 214.583 339.74 209.783 343.007 203.85C341.74 203.85 340.54 204.017 339.407 204.35C338.307 204.65 337.723 205.033 337.657 205.5C337.623 205.633 337.54 205.767 337.407 205.9C337.307 206 337.14 206.05 336.907 206.05C336.373 206.05 336.107 205.783 336.107 205.25C336.107 204.383 336.79 203.667 338.157 203.1C339.523 202.533 341.44 202.25 343.907 202.25L347.357 196.55C347.59 196.183 347.84 195.783 348.107 195.35C348.373 194.883 348.673 194.383 349.007 193.85C349.34 193.383 349.723 193.15 350.157 193.15C350.423 193.15 350.623 193.233 350.757 193.4C350.89 193.533 350.957 193.683 350.957 193.85C350.957 194.35 350.223 195.683 348.757 197.85C346.923 200.55 345.94 202.017 345.807 202.25C346.307 202.25 347.057 202.3 348.057 202.4C349.057 202.467 350.24 202.583 351.607 202.75C352.107 202.783 352.357 203.033 352.357 203.5C352.357 204.033 352.057 204.3 351.457 204.3C351.223 204.3 350.757 204.267 350.057 204.2C349.357 204.1 348.607 204.017 347.807 203.95C347.007 203.883 346.323 203.867 345.757 203.9L345.007 203.95C338.24 215.85 334.873 223.25 334.907 226.15L334.957 226.55V226.65C334.957 227.183 334.673 227.45 334.107 227.45ZM346.332 224C345.432 224 344.982 223.583 344.982 222.75C344.982 221.85 345.399 221.4 346.232 221.4C347.132 221.4 347.582 221.817 347.582 222.65C347.582 223.55 347.166 224 346.332 224ZM384.859 225.05C380.892 225.05 376.409 224.367 371.409 223V223.05C369.375 224.117 367.592 224.65 366.059 224.65C365.159 224.65 364.325 224.433 363.559 224C362.592 223.5 362.109 222.85 362.109 222.05C362.109 221.35 362.459 220.783 363.159 220.35C363.692 220.017 364.359 219.85 365.159 219.85C365.792 219.85 367.775 220.35 371.109 221.35L371.409 221.2L371.659 221.05C383.125 213.983 390.559 207.583 393.959 201.85C395.492 199.283 396.259 197.183 396.259 195.55C396.259 193.117 394.642 191.9 391.409 191.9C389.275 191.9 387.059 192.467 384.759 193.6C382.625 194.633 380.742 195.967 379.109 197.6C378.809 197.9 378.442 198.317 378.009 198.85C377.575 199.35 377.075 199.967 376.509 200.7C376.375 200.933 376.159 201.05 375.859 201.05C375.292 201.05 375.009 200.767 375.009 200.2C375.009 200.033 375.075 199.883 375.209 199.75C377.009 197.117 379.392 194.917 382.359 193.15C385.525 191.25 388.592 190.3 391.559 190.3C393.359 190.3 394.809 190.7 395.909 191.5C397.142 192.4 397.759 193.717 397.759 195.45C397.759 197.583 396.942 200.017 395.309 202.75C391.775 208.683 384.475 215.083 373.409 221.95C377.709 222.95 381.459 223.45 384.659 223.45C390.425 223.45 393.259 222.367 393.159 220.2L393.109 219.9C393.109 219.267 393.392 218.95 393.959 218.95C394.459 218.95 394.709 219.333 394.709 220.1C394.709 223.4 391.425 225.05 384.859 225.05ZM365.959 223C366.825 223 367.792 222.783 368.859 222.35C367.159 221.75 366.059 221.45 365.559 221.45C364.659 221.45 364.209 221.7 364.209 222.2C364.209 222.733 364.792 223 365.959 223ZM411.238 225.1C409.272 225.1 407.505 224.6 405.938 223.6C404.372 222.6 403.138 221.267 402.238 219.6C401.372 217.9 400.938 216.05 400.938 214.05C400.938 213.617 400.955 213.217 400.988 212.85C401.055 212.45 401.122 212.083 401.188 211.75C403.222 203.05 407.788 196.883 414.888 193.25C417.855 191.75 420.372 191 422.438 191C424.138 191 425.772 191.367 427.338 192.1C428.905 192.833 430.305 193.833 431.538 195.1C432.805 196.367 433.788 197.8 434.488 199.4C435.222 200.967 435.588 202.6 435.588 204.3C435.588 204.833 435.555 205.367 435.488 205.9C435.422 206.433 435.322 206.983 435.188 207.55C434.722 209.317 433.722 211.25 432.188 213.35C431.055 214.883 429.755 216.317 428.288 217.65C426.822 218.95 425.205 220.133 423.438 221.2C419.672 223.467 415.988 224.767 412.388 225.1V225.05C412.255 225.083 412.088 225.1 411.888 225.1C411.722 225.1 411.505 225.1 411.238 225.1ZM411.238 223.5C413.205 223.5 415.322 223.05 417.588 222.15C419.855 221.25 422.055 220.033 424.188 218.5C426.355 216.967 428.205 215.233 429.738 213.3C432.305 210.133 433.588 207.05 433.588 204.05C433.588 202.583 433.288 201.167 432.688 199.8C432.122 198.433 431.322 197.217 430.288 196.15C429.288 195.083 428.138 194.233 426.838 193.6C425.538 192.967 424.155 192.65 422.688 192.65C420.722 192.65 418.405 193.333 415.738 194.7C409.038 198.167 404.772 204.067 402.938 212.4C402.872 212.767 402.805 213.133 402.738 213.5C402.705 213.833 402.688 214.183 402.688 214.55C402.688 216.25 403.038 217.783 403.738 219.15C404.472 220.483 405.472 221.55 406.738 222.35C408.038 223.117 409.538 223.5 411.238 223.5ZM455.269 225.05C451.302 225.05 446.819 224.367 441.819 223V223.05C439.785 224.117 438.002 224.65 436.469 224.65C435.569 224.65 434.735 224.433 433.969 224C433.002 223.5 432.519 222.85 432.519 222.05C432.519 221.35 432.869 220.783 433.569 220.35C434.102 220.017 434.769 219.85 435.569 219.85C436.202 219.85 438.185 220.35 441.519 221.35L441.819 221.2L442.069 221.05C453.535 213.983 460.969 207.583 464.369 201.85C465.902 199.283 466.669 197.183 466.669 195.55C466.669 193.117 465.052 191.9 461.819 191.9C459.685 191.9 457.469 192.467 455.169 193.6C453.035 194.633 451.152 195.967 449.519 197.6C449.219 197.9 448.852 198.317 448.419 198.85C447.985 199.35 447.485 199.967 446.919 200.7C446.785 200.933 446.569 201.05 446.269 201.05C445.702 201.05 445.419 200.767 445.419 200.2C445.419 200.033 445.485 199.883 445.619 199.75C447.419 197.117 449.802 194.917 452.769 193.15C455.935 191.25 459.002 190.3 461.969 190.3C463.769 190.3 465.219 190.7 466.319 191.5C467.552 192.4 468.169 193.717 468.169 195.45C468.169 197.583 467.352 200.017 465.719 202.75C462.185 208.683 454.885 215.083 443.819 221.95C448.119 222.95 451.869 223.45 455.069 223.45C460.835 223.45 463.669 222.367 463.569 220.2L463.519 219.9C463.519 219.267 463.802 218.95 464.369 218.95C464.869 218.95 465.119 219.333 465.119 220.1C465.119 223.4 461.835 225.05 455.269 225.05ZM436.369 223C437.235 223 438.202 222.783 439.269 222.35C437.569 221.75 436.469 221.45 435.969 221.45C435.069 221.45 434.619 221.7 434.619 222.2C434.619 222.733 435.202 223 436.369 223ZM482.398 224.95C481.598 224.95 481.198 224.733 481.198 224.3C481.198 223.567 482.615 220.25 485.448 214.35C483.715 214.283 481.948 214.117 480.148 213.85C478.382 213.583 476.582 213.233 474.748 212.8C473.815 213.3 473.082 213.55 472.548 213.55C472.182 213.55 471.748 213.467 471.248 213.3C470.682 213.033 470.398 212.75 470.398 212.45C470.398 211.983 470.665 211.6 471.198 211.3C471.732 210.967 472.248 210.8 472.748 210.8C472.815 210.8 472.898 210.817 472.998 210.85C473.132 210.85 473.282 210.867 473.448 210.9C475.848 209.1 478.815 206.833 482.348 204.1C485.915 201.333 490.065 198.083 494.798 194.35C495.265 193.883 495.848 193.317 496.548 192.65C497.282 191.95 498.115 191.183 499.048 190.35C499.082 190.317 499.182 190.3 499.348 190.3C499.582 190.3 499.848 190.417 500.148 190.65C500.448 190.883 500.598 191.117 500.598 191.35C500.598 191.683 500.282 192.167 499.648 192.8C499.448 193.033 499.248 193.267 499.048 193.5C498.848 193.7 498.632 193.917 498.398 194.15C497.965 194.683 496.898 196.45 495.198 199.45C493.932 201.683 492.715 203.917 491.548 206.15C490.415 208.35 489.315 210.55 488.248 212.75C489.115 212.783 489.932 212.75 490.698 212.65C491.465 212.55 492.198 212.417 492.898 212.25C494.932 211.717 495.948 210.817 495.948 209.55V209.2C495.948 208.567 496.232 208.25 496.798 208.25C497.332 208.25 497.598 208.683 497.598 209.55C497.598 212.817 494.248 214.45 487.548 214.45C487.015 215.55 486.498 216.683 485.998 217.85C485.498 219.017 485.015 220.217 484.548 221.45C484.448 221.817 484.315 222.25 484.148 222.75C484.015 223.217 483.832 223.75 483.598 224.35C483.465 224.75 483.065 224.95 482.398 224.95ZM486.098 212.75C489.465 205.583 492.565 199.983 495.398 195.95C494.332 196.883 492.965 198 491.298 199.3C489.665 200.567 487.732 202.017 485.498 203.65C483.232 205.283 481.265 206.75 479.598 208.05C477.932 209.317 476.598 210.383 475.598 211.25C479.032 212.117 482.532 212.617 486.098 212.75Z" fill="white"/>
<path d="M6.1 139.9C4.83333 139.9 4.2 138.9 4.2 136.9C4.2 133.967 5.83333 128.833 9.1 121.5C12.4333 114.167 17.3667 104.567 23.9 92.7C21.3667 92.7 18.9667 93.0333 16.7 93.7C14.5 94.3 13.3333 95.0667 13.2 96C13.1333 96.2667 12.9667 96.5333 12.7 96.8C12.5 97 12.1667 97.1 11.7 97.1C10.6333 97.1 10.1 96.5667 10.1 95.5C10.1 93.7667 11.4667 92.3333 14.2 91.2C16.9333 90.0667 20.7667 89.5 25.7 89.5L32.6 78.1C33.0667 77.3667 33.5667 76.5667 34.1 75.7C34.6333 74.7667 35.2333 73.7667 35.9 72.7C36.5667 71.7667 37.3333 71.3 38.2 71.3C38.7333 71.3 39.1333 71.4667 39.4 71.8C39.6667 72.0667 39.8 72.3667 39.8 72.7C39.8 73.7 38.3333 76.3667 35.4 80.7C31.7333 86.1 29.7667 89.0333 29.5 89.5C30.5 89.5 32 89.6 34 89.8C36 89.9333 38.3667 90.1667 41.1 90.5C42.1 90.5667 42.6 91.0667 42.6 92C42.6 93.0667 42 93.6 40.8 93.6C40.3333 93.6 39.4 93.5333 38 93.4C36.6 93.2 35.1 93.0333 33.5 92.9C31.9 92.7667 30.5333 92.7333 29.4 92.8L27.9 92.9C14.3667 116.7 7.63333 131.5 7.7 137.3L7.8 138.1V138.3C7.8 139.367 7.23333 139.9 6.1 139.9ZM27.6516 134.8C26.5849 134.8 26.0516 134.267 26.0516 133.2C26.0516 131.8 26.5516 129.6 27.5516 126.6C28.5516 123.533 29.8516 120.033 31.4516 116.1C33.1182 112.1 34.8849 108 36.7516 103.8C37.8182 101.467 38.9182 99.2 40.0516 97C41.1849 94.7333 42.2516 92.7667 43.2516 91.1C53.1182 74.4333 59.2516 66.1 61.6516 66.1C62.5849 66.1 63.0516 66.5667 63.0516 67.5C63.0516 68.1 62.5849 69.2333 61.6516 70.9C60.7849 72.5 59.6182 74.4 58.1516 76.6C56.7516 78.7333 55.2182 80.9 53.5516 83.1C51.9516 85.3 50.4182 87.3333 48.9516 89.2C47.5516 91 46.4182 92.3667 45.5516 93.3C44.8182 94.1667 43.9849 95.4333 43.0516 97.1C42.1849 98.7667 41.3182 100.5 40.4516 102.3C39.5849 104.033 38.8849 105.567 38.3516 106.9L34.5516 116.3C35.5516 114.967 36.8516 113.467 38.4516 111.8C42.2516 107.6 46.1849 104.433 50.2516 102.3C54.3849 100.1 57.8516 99 60.6516 99C62.1849 99 63.4182 99.4667 64.3516 100.4C65.2849 101.333 65.7516 102.467 65.7516 103.8C65.7516 106.4 64.0516 110.767 60.6516 116.9C57.2516 122.967 55.5516 126.7 55.5516 128.1C55.5516 128.833 55.9516 129.2 56.7516 129.2C58.6182 129.2 60.6516 128.533 62.8516 127.2C65.0516 125.8 67.3182 124.033 69.6516 121.9C71.9849 119.767 74.2516 117.633 76.4516 115.5C76.7182 115.233 77.1182 115.1 77.6516 115.1C78.6516 115.1 79.1516 115.5 79.1516 116.3C79.1516 117.033 78.6849 117.867 77.7516 118.8C73.2849 123.267 69.4516 126.6 66.2516 128.8C63.0516 131 59.6849 132.1 56.1516 132.1C53.4849 132.1 52.1516 130.867 52.1516 128.4C52.1516 127.467 52.3182 126.567 52.6516 125.7C52.9849 124.833 53.5182 123.667 54.2516 122.2L58.8516 113.1C59.9849 110.833 60.8182 108.933 61.3516 107.4C61.8849 105.867 62.1516 104.7 62.1516 103.9C62.1516 102.767 61.4516 102.2 60.0516 102.2C57.5849 102.2 54.6849 103.2 51.3516 105.2C48.0849 107.133 44.5849 110.067 40.8516 114C38.7182 116.267 36.7849 118.667 35.0516 121.2C33.3849 123.733 32.0516 126.467 31.0516 129.4L29.8516 132.9C29.3849 134.167 28.6516 134.8 27.6516 134.8ZM83.1875 134.8C80.3875 134.8 78.1875 133.833 76.5875 131.9C74.9875 129.967 74.1875 127.6 74.1875 124.8C74.1875 120 75.7875 115.067 78.9875 110C79.8542 108.6 80.8542 107.233 81.9875 105.9C83.1208 104.5 84.3542 103.167 85.6875 101.9C87.6875 99.9667 89.7875 98.3667 91.9875 97.1C94.1875 95.8333 96.3208 95.2 98.3875 95.2C101.788 95.2 103.488 96.8 103.488 100C103.488 104 101.154 107.633 96.4875 110.9C92.1542 113.833 87.8875 115.3 83.6875 115.3C82.9542 115.3 82.2875 115.267 81.6875 115.2C81.1542 115.067 80.6542 114.933 80.1875 114.8C79.5208 116.067 78.9208 117.7 78.3875 119.7C77.8542 121.7 77.5875 123.433 77.5875 124.9C77.5875 129.3 79.5208 131.5 83.3875 131.5C86.5208 131.5 89.4875 130.967 92.2875 129.9C95.0875 128.767 98.4208 126.667 102.288 123.6C104.688 121.733 106.488 120.233 107.688 119.1C108.888 117.967 110.188 116.767 111.588 115.5C111.988 115.233 112.354 115.1 112.688 115.1C113.021 115.1 113.354 115.2 113.688 115.4C114.021 115.6 114.188 115.9 114.188 116.3C114.188 117.033 113.521 118.067 112.188 119.4C111.054 120.467 109.854 121.6 108.588 122.8C107.321 123.933 105.321 125.533 102.588 127.6C99.6542 129.867 96.4542 131.633 92.9875 132.9C89.5208 134.167 86.2542 134.8 83.1875 134.8ZM83.0875 112.1C85.2208 112.1 87.2542 111.767 89.1875 111.1C91.1208 110.433 92.9542 109.467 94.6875 108.2C98.5542 105.333 100.488 102.633 100.488 100.1C100.488 98.9667 99.7875 98.4 98.3875 98.4C95.7208 98.4 92.6208 100.033 89.0875 103.3C87.3542 104.9 85.9208 106.367 84.7875 107.7C83.7208 108.967 82.7208 110.367 81.7875 111.9C82.1875 112.033 82.6208 112.1 83.0875 112.1Z" fill="#000"/>
<path d="M673 136.3C669.267 136.3 667.4 135.067 667.4 132.6C667.4 131.067 667.933 129.533 669 128C670.133 126.467 671.467 125.067 673 123.8C674.533 122.533 675.967 121.567 677.3 120.9C677.7 120.7 678.233 120.5 678.9 120.3C679.633 120.1 680.233 120 680.7 120C681.233 120 681.5 120.2 681.5 120.6C681.5 120.933 681.133 121.3 680.4 121.7C677.333 123.167 674.933 124.933 673.2 127C671.533 129 670.7 130.633 670.7 131.9C670.7 133.1 671.733 133.7 673.8 133.7C675.533 133.7 677.4 133.267 679.4 132.4C681.467 131.533 683.4 130.4 685.2 129C687.067 127.6 688.6 126.1 689.8 124.5C691 122.9 691.6 121.367 691.6 119.9C691.6 118.9 691.267 118 690.6 117.2C690 116.4 689 115.8 687.6 115.4L681 113.4C679.333 112.867 678.133 112.167 677.4 111.3C676.667 110.433 676.3 109.467 676.3 108.4C676.3 106.4 677.033 104.6 678.5 103C680.033 101.4 681.933 100.133 684.2 99.2C686.467 98.2667 688.667 97.8 690.8 97.8C692.933 97.8 694.8 98.3333 696.4 99.4C698 100.4 698.8 101.767 698.8 103.5C698.8 104.5 698.5 105.433 697.9 106.3C697.367 107.167 696.733 107.6 696 107.6C694.867 107.6 694.3 107.133 694.3 106.2C694.3 105.867 694.467 105.467 694.8 105C695.2 104.467 695.4 103.967 695.4 103.5C695.4 101.5 693.867 100.5 690.8 100.5C689.133 100.5 687.467 100.867 685.8 101.6C684.2 102.267 682.867 103.167 681.8 104.3C680.733 105.433 680.2 106.667 680.2 108C680.2 109.333 681.533 110.4 684.2 111.2L690.6 113.2C692.533 113.8 693.867 114.633 694.6 115.7C695.333 116.7 695.7 117.833 695.7 119.1C695.7 122.1 693.867 125.2 690.2 128.4C684.267 133.667 678.533 136.3 673 136.3ZM702.057 139.9C700.79 139.9 700.157 138.9 700.157 136.9C700.157 133.967 701.79 128.833 705.057 121.5C708.39 114.167 713.324 104.567 719.857 92.7C717.324 92.7 714.924 93.0333 712.657 93.7C710.457 94.3 709.29 95.0667 709.157 96C709.09 96.2667 708.924 96.5333 708.657 96.8C708.457 97 708.124 97.1 707.657 97.1C706.59 97.1 706.057 96.5667 706.057 95.5C706.057 93.7667 707.424 92.3333 710.157 91.2C712.89 90.0667 716.724 89.5 721.657 89.5L728.557 78.1C729.024 77.3667 729.524 76.5667 730.057 75.7C730.59 74.7667 731.19 73.7667 731.857 72.7C732.524 71.7667 733.29 71.3 734.157 71.3C734.69 71.3 735.09 71.4667 735.357 71.8C735.624 72.0667 735.757 72.3667 735.757 72.7C735.757 73.7 734.29 76.3667 731.357 80.7C727.69 86.1 725.724 89.0333 725.457 89.5C726.457 89.5 727.957 89.6 729.957 89.8C731.957 89.9333 734.324 90.1667 737.057 90.5C738.057 90.5667 738.557 91.0667 738.557 92C738.557 93.0667 737.957 93.6 736.757 93.6C736.29 93.6 735.357 93.5333 733.957 93.4C732.557 93.2 731.057 93.0333 729.457 92.9C727.857 92.7667 726.49 92.7333 725.357 92.8L723.857 92.9C710.324 116.7 703.59 131.5 703.657 137.3L703.757 138.1V138.3C703.757 139.367 703.19 139.9 702.057 139.9ZM752.709 136.4C749.442 136.4 747.809 134.033 747.809 129.3C747.809 126.767 748.409 123.7 749.609 120.1C741.542 129.5 735.209 134.2 730.609 134.2C726.809 134.2 724.909 131.9 724.909 127.3C724.909 125.567 725.175 123.5 725.709 121.1C726.309 118.633 727.075 116.1 728.009 113.5C729.009 110.9 730.075 108.467 731.209 106.2C732.342 103.933 733.475 102.1 734.609 100.7C735.009 100.233 735.509 100 736.109 100C736.442 100 736.775 100.133 737.109 100.4C737.442 100.6 737.609 100.933 737.609 101.4C737.609 101.8 737.375 102.367 736.909 103.1C733.909 108.033 731.775 112.333 730.509 116C728.909 120.2 728.109 123.833 728.109 126.9C728.109 129.767 728.842 131.2 730.309 131.2C731.242 131.2 732.475 130.733 734.009 129.8C735.542 128.867 737.109 127.733 738.709 126.4C740.375 125 741.809 123.7 743.009 122.5C746.342 118.967 749.342 115.2 752.009 111.2C753.209 109.333 754.275 107.533 755.209 105.8C756.209 104 757.109 102.133 757.909 100.2C758.242 99.4667 758.509 98.9333 758.709 98.6C758.975 98.2 759.342 98 759.809 98C761.209 98 761.909 98.5333 761.909 99.6C761.909 100.267 761.675 100.733 761.209 101C754.409 114.8 751.009 124.3 751.009 129.5C751.009 130.9 751.142 131.9 751.409 132.5C751.675 133.033 752.142 133.3 752.809 133.3C753.742 133.3 755.175 132.7 757.109 131.5C759.109 130.3 761.442 128.467 764.109 126L774.609 116.4C775.142 115.867 775.642 115.6 776.109 115.6C777.175 115.6 777.709 116.1 777.709 117.1C777.709 117.967 775.609 120.3 771.409 124.1C769.609 125.767 768.009 127.167 766.609 128.3C765.209 129.433 763.909 130.433 762.709 131.3C760.442 132.9 758.442 134.133 756.709 135C754.975 135.933 753.642 136.4 752.709 136.4ZM803.984 141.9C803.45 141.9 802.784 141.633 801.984 141.1C801.25 140.633 800.684 140.167 800.284 139.7C799.484 138.7 798.95 137.5 798.684 136.1C798.417 134.7 798.284 133.167 798.284 131.5C798.284 130.1 798.317 128.6 798.384 127C798.517 125.333 798.717 123.567 798.984 121.7C797.25 123.7 795.284 125.667 793.084 127.6C790.95 129.467 788.75 131 786.484 132.2C784.284 133.4 782.184 134 780.184 134C775.184 134 772.684 131.333 772.684 126C772.684 120.467 774.617 115.133 778.484 110C780.417 107.467 782.617 105.033 785.084 102.7C787.55 100.367 790.15 98.4667 792.884 97C795.617 95.5333 798.317 94.8 800.984 94.8C802.984 94.8 804.75 95.5667 806.284 97.1C806.417 96.8333 806.584 96.4 806.784 95.8C807.05 95.2 807.417 94.4333 807.884 93.5C809.484 90.0333 811.25 86.4333 813.184 82.7C815.117 78.9 816.85 75.7667 818.384 73.3C820.117 70.5667 821.75 69.2 823.284 69.2C824.35 69.2 824.884 70.0333 824.884 71.7C824.884 74.5667 822.184 81.2667 816.784 91.8C816.45 92.4 815.85 93.5 814.984 95.1C814.184 96.6333 813.217 98.4333 812.084 100.5C811.017 102.5 809.917 104.5 808.784 106.5C807.65 108.5 806.617 110.3 805.684 111.9C804.817 113.433 804.184 114.5 803.784 115.1C803.05 118.1 802.484 120.967 802.084 123.7C801.684 126.367 801.484 129.133 801.484 132C801.484 133.067 801.517 134.033 801.584 134.9C801.717 135.833 801.984 136.567 802.384 137.1C802.717 137.5 803.084 137.8 803.484 138C803.884 138.267 804.35 138.5 804.884 138.7C805.684 138.9 806.084 139.367 806.084 140.1C806.084 141.3 805.384 141.9 803.984 141.9ZM808.684 100.1C811.217 95.7667 813.45 91.7333 815.384 88C817.317 84.2 818.884 80.6333 820.084 77.3C817.417 80.7667 815.184 84.4333 813.384 88.3C811.584 92.1667 810.017 96.1 808.684 100.1ZM779.484 131C781.417 131 783.45 130.367 785.584 129.1C787.784 127.767 789.85 126.2 791.784 124.4C793.517 122.8 795.117 121.167 796.584 119.5C798.05 117.767 799.417 116 800.684 114.2C801.217 111.867 801.817 109.567 802.484 107.3C803.217 105.033 804.017 102.767 804.884 100.5C803.817 98.8333 802.317 98 800.384 98C798.384 98 796.15 98.7667 793.684 100.3C791.284 101.767 788.95 103.6 786.684 105.8C784.484 108 782.584 110.1 780.984 112.1C777.65 116.567 775.984 121.3 775.984 126.3C775.984 129.433 777.15 131 779.484 131ZM834.98 93.6C833.847 93.6 833.28 93.0333 833.28 91.9C833.28 91.5667 833.514 90.9667 833.98 90.1C834.447 89.1667 834.98 88.2333 835.58 87.3C836.18 86.3667 836.647 85.7333 836.98 85.4C838.114 84.1333 838.98 83.3333 839.58 83C840.247 82.6667 840.847 82.5 841.38 82.5C842.78 82.5 843.48 83.1333 843.48 84.4C843.48 84.8667 843.18 85.4333 842.58 86.1C842.047 86.7 841.414 87.2667 840.68 87.8C839.614 88.4667 838.947 89 838.68 89.4L836.48 92.5C836.414 92.7667 836.247 93.0333 835.98 93.3C835.78 93.5 835.447 93.6 834.98 93.6ZM817.98 134.1C816.114 134.1 814.747 133.733 813.88 133C813.08 132.267 812.68 131.167 812.68 129.7C812.68 128.3 813.114 126.4 813.98 124C814.847 121.533 815.947 118.9 817.28 116.1C818.68 113.3 820.147 110.633 821.68 108.1C823.214 105.567 824.68 103.5 826.08 101.9C827.547 100.233 828.714 99.4 829.58 99.4C830.78 99.4 831.38 99.9333 831.38 101C831.38 101.667 830.814 102.933 829.68 104.8C828.547 106.667 827.314 108.6 825.98 110.6C825.447 111.333 824.714 112.333 823.78 113.6C822.847 114.867 821.947 116.067 821.08 117.2C820.214 118.267 819.647 119 819.38 119.4C818.714 120.4 818.014 122.033 817.28 124.3C816.48 126.567 816.08 128.3 816.08 129.5C816.08 130.033 816.18 130.433 816.38 130.7C816.647 130.967 817.214 131.1 818.08 131.1C819.747 131.1 821.614 130.567 823.68 129.5C825.747 128.433 827.847 127.1 829.98 125.5C832.114 123.833 834.114 122.133 835.98 120.4C837.914 118.667 839.547 117.167 840.88 115.9C841.147 115.633 841.547 115.5 842.08 115.5C843.08 115.5 843.58 115.9 843.58 116.7C843.58 117.433 843.114 118.267 842.18 119.2C840.38 121 838.714 122.6 837.18 124C835.647 125.4 834.18 126.633 832.78 127.7C830.58 129.3 828.147 130.767 825.48 132.1C822.814 133.433 820.314 134.1 817.98 134.1ZM845.995 132.5C840.595 132.5 837.895 129.467 837.895 123.4C837.895 120.6 838.561 117.667 839.895 114.6C841.228 111.533 842.995 108.7 845.195 106.1C847.395 103.433 849.828 101.267 852.495 99.6C855.228 97.9333 857.995 97.1 860.795 97.1C863.261 97.1 865.061 98.0333 866.195 99.9C867.328 101.767 867.895 103.833 867.895 106.1C867.895 109.1 867.295 112.167 866.095 115.3C864.895 118.367 863.261 121.2 861.195 123.8C859.128 126.4 856.795 128.5 854.195 130.1C851.595 131.7 848.861 132.5 845.995 132.5ZM845.895 129.3C846.295 129.3 846.528 129.267 846.595 129.2C849.195 128.867 851.595 127.933 853.795 126.4C855.995 124.867 857.895 122.967 859.495 120.7C861.161 118.367 862.428 115.867 863.295 113.2C864.161 110.533 864.595 107.9 864.595 105.3C864.595 103.767 864.161 102.567 863.295 101.7C862.428 100.833 861.328 100.4 859.995 100.4C858.061 100.4 855.995 101.2 853.795 102.8C851.661 104.4 849.628 106.433 847.695 108.9C845.828 111.367 844.295 113.967 843.095 116.7C841.895 119.367 841.295 121.767 841.295 123.9C841.295 127.5 842.828 129.3 845.895 129.3Z" fill="#000"/>
</svg>
